<svg width="275" height="272" viewBox="0 0 275 272" fill="none" xmlns="http://www.w3.org/2000/svg">
<path d="M49.4946 81.9086C55.8373 71.5148 64.3268 62.5957 74.3951 55.748C84.4633 48.9004 95.8781 44.2822 107.875 42.2025C119.873 40.1229 132.176 40.6297 143.961 43.6892C155.747 46.7486 166.743 52.29 176.214 59.9426L149.508 92.9937C144.744 89.1443 139.213 86.3569 133.285 84.818C127.356 83.279 121.168 83.0241 115.133 84.0702C109.098 85.1163 103.356 87.4393 98.2917 90.8838C93.2271 94.3283 88.9568 98.8148 85.7663 104.043L49.4946 81.9086Z" fill="#FE9602"/>
<path d="M199.852 162.785C194.774 173.726 187.439 183.47 178.328 191.375C169.217 199.28 158.537 205.168 146.988 208.652C135.44 212.135 123.285 213.136 111.323 211.588C99.3599 210.04 87.8602 205.978 77.579 199.67C67.2978 193.361 58.4678 184.949 51.6692 174.985C44.8706 165.021 40.2573 153.731 38.1323 141.857C36.0074 129.983 36.4189 117.794 39.3398 106.091C42.2608 94.3877 47.625 83.4348 55.0802 73.9521L88.4848 100.214C84.7348 104.984 82.0364 110.494 80.5671 116.381C79.0979 122.268 78.8909 128.399 79.9598 134.372C81.0287 140.344 83.3492 146.023 86.769 151.035C90.1889 156.047 94.6305 160.279 99.8021 163.452C104.974 166.626 110.758 168.669 116.776 169.448C122.793 170.226 128.907 169.723 134.716 167.97C140.525 166.218 145.898 163.256 150.481 159.28C155.064 155.304 158.753 150.402 161.307 144.898L199.852 162.785Z" fill="#4C40F7"/>
<path d="M166.269 53.4269C176.69 59.7246 185.646 68.1756 192.537 78.2142C199.428 88.2528 204.095 99.6475 206.227 111.636C208.358 123.624 207.904 135.929 204.896 147.728C201.887 159.527 196.393 170.547 188.782 180.05L155.616 153.488C159.444 148.707 162.208 143.164 163.721 137.229C165.235 131.294 165.463 125.104 164.391 119.074C163.319 113.044 160.971 107.312 157.504 102.262C154.038 97.2127 149.533 92.9617 144.291 89.7938L166.269 53.4269Z" fill="#FF2D59"/>
<g filter="url(#filter0_d_0_2160)">
<circle cx="58" cy="199" r="28" fill="white"/>
</g>
<path d="M50.467 196.28C50.379 195.912 50.219 195.636 49.987 195.452C49.755 195.268 49.431 195.176 49.015 195.176C48.383 195.176 47.911 195.42 47.599 195.908C47.287 196.388 47.123 197.188 47.107 198.308C47.315 197.956 47.619 197.684 48.019 197.492C48.419 197.3 48.851 197.204 49.315 197.204C49.843 197.204 50.307 197.32 50.707 197.552C51.115 197.776 51.431 198.104 51.655 198.536C51.887 198.968 52.003 199.484 52.003 200.084C52.003 200.644 51.891 201.144 51.667 201.584C51.451 202.024 51.127 202.372 50.695 202.628C50.263 202.876 49.743 203 49.135 203C48.311 203 47.663 202.82 47.191 202.46C46.727 202.092 46.399 201.576 46.207 200.912C46.023 200.248 45.931 199.42 45.931 198.428C45.931 195.5 46.963 194.036 49.027 194.036C49.827 194.036 50.455 194.252 50.911 194.684C51.375 195.116 51.647 195.648 51.727 196.28H50.467ZM49.015 198.356C48.527 198.356 48.111 198.504 47.767 198.8C47.431 199.088 47.263 199.508 47.263 200.06C47.263 200.612 47.419 201.052 47.731 201.38C48.051 201.7 48.495 201.86 49.063 201.86C49.567 201.86 49.963 201.704 50.251 201.392C50.547 201.08 50.695 200.664 50.695 200.144C50.695 199.6 50.551 199.168 50.263 198.848C49.983 198.52 49.567 198.356 49.015 198.356ZM53.4622 198.512C53.4622 197.128 53.6942 196.048 54.1582 195.272C54.6302 194.488 55.4382 194.096 56.5822 194.096C57.7262 194.096 58.5302 194.488 58.9942 195.272C59.4662 196.048 59.7022 197.128 59.7022 198.512C59.7022 199.912 59.4662 201.008 58.9942 201.8C58.5302 202.584 57.7262 202.976 56.5822 202.976C55.4382 202.976 54.6302 202.584 54.1582 201.8C53.6942 201.008 53.4622 199.912 53.4622 198.512ZM58.3582 198.512C58.3582 197.864 58.3142 197.316 58.2262 196.868C58.1462 196.42 57.9782 196.056 57.7222 195.776C57.4662 195.488 57.0862 195.344 56.5822 195.344C56.0782 195.344 55.6982 195.488 55.4422 195.776C55.1862 196.056 55.0142 196.42 54.9262 196.868C54.8462 197.316 54.8062 197.864 54.8062 198.512C54.8062 199.184 54.8462 199.748 54.9262 200.204C55.0062 200.66 55.1742 201.028 55.4302 201.308C55.6942 201.588 56.0782 201.728 56.5822 201.728C57.0862 201.728 57.4662 201.588 57.7222 201.308C57.9862 201.028 58.1582 200.66 58.2382 200.204C58.3182 199.748 58.3582 199.184 58.3582 198.512ZM60.9337 196.364C60.9337 195.78 61.1017 195.324 61.4377 194.996C61.7817 194.66 62.2217 194.492 62.7577 194.492C63.2937 194.492 63.7297 194.66 64.0657 194.996C64.4097 195.324 64.5817 195.78 64.5817 196.364C64.5817 196.948 64.4097 197.408 64.0657 197.744C63.7297 198.08 63.2937 198.248 62.7577 198.248C62.2217 198.248 61.7817 198.08 61.4377 197.744C61.1017 197.408 60.9337 196.948 60.9337 196.364ZM68.2537 194.648L63.4657 203H62.1217L66.9097 194.648H68.2537ZM62.7577 195.32C62.2537 195.32 62.0017 195.668 62.0017 196.364C62.0017 197.068 62.2537 197.42 62.7577 197.42C62.9977 197.42 63.1817 197.336 63.3097 197.168C63.4457 196.992 63.5137 196.724 63.5137 196.364C63.5137 195.668 63.2617 195.32 62.7577 195.32ZM65.8177 201.272C65.8177 200.688 65.9857 200.232 66.3217 199.904C66.6657 199.568 67.1057 199.4 67.6417 199.4C68.1697 199.4 68.6017 199.568 68.9377 199.904C69.2817 200.232 69.4537 200.688 69.4537 201.272C69.4537 201.856 69.2817 202.316 68.9377 202.652C68.6017 202.988 68.1697 203.156 67.6417 203.156C67.1057 203.156 66.6657 202.988 66.3217 202.652C65.9857 202.316 65.8177 201.856 65.8177 201.272ZM67.6297 200.228C67.1257 200.228 66.8737 200.576 66.8737 201.272C66.8737 201.968 67.1257 202.316 67.6297 202.316C68.1337 202.316 68.3857 201.968 68.3857 201.272C68.3857 200.576 68.1337 200.228 67.6297 200.228Z" fill="#4C40F7"/>
<g filter="url(#filter1_d_0_2160)">
<circle cx="109" cy="43" r="28" fill="white"/>
</g>
<path d="M98.4057 46.14C99.1737 45.476 99.7777 44.932 100.218 44.508C100.666 44.076 101.038 43.628 101.334 43.164C101.63 42.7 101.778 42.236 101.778 41.772C101.778 41.292 101.662 40.916 101.43 40.644C101.206 40.372 100.85 40.236 100.362 40.236C99.8897 40.236 99.5217 40.388 99.2577 40.692C99.0017 40.988 98.8657 41.388 98.8497 41.892H97.5297C97.5537 40.98 97.8257 40.284 98.3457 39.804C98.8737 39.316 99.5417 39.072 100.35 39.072C101.222 39.072 101.902 39.312 102.39 39.792C102.886 40.272 103.134 40.912 103.134 41.712C103.134 42.288 102.986 42.844 102.69 43.38C102.402 43.908 102.054 44.384 101.646 44.808C101.246 45.224 100.734 45.708 100.11 46.26L99.5697 46.74H103.374V47.88H97.5417V46.884L98.4057 46.14ZM104.575 43.512C104.575 42.128 104.807 41.048 105.271 40.272C105.743 39.488 106.551 39.096 107.695 39.096C108.839 39.096 109.643 39.488 110.107 40.272C110.579 41.048 110.815 42.128 110.815 43.512C110.815 44.912 110.579 46.008 110.107 46.8C109.643 47.584 108.839 47.976 107.695 47.976C106.551 47.976 105.743 47.584 105.271 46.8C104.807 46.008 104.575 44.912 104.575 43.512ZM109.471 43.512C109.471 42.864 109.427 42.316 109.339 41.868C109.259 41.42 109.091 41.056 108.835 40.776C108.579 40.488 108.199 40.344 107.695 40.344C107.191 40.344 106.811 40.488 106.555 40.776C106.299 41.056 106.127 41.42 106.039 41.868C105.959 42.316 105.919 42.864 105.919 43.512C105.919 44.184 105.959 44.748 106.039 45.204C106.119 45.66 106.287 46.028 106.543 46.308C106.807 46.588 107.191 46.728 107.695 46.728C108.199 46.728 108.579 46.588 108.835 46.308C109.099 46.028 109.271 45.66 109.351 45.204C109.431 44.748 109.471 44.184 109.471 43.512ZM112.047 41.364C112.047 40.78 112.215 40.324 112.551 39.996C112.895 39.66 113.335 39.492 113.871 39.492C114.407 39.492 114.843 39.66 115.179 39.996C115.523 40.324 115.695 40.78 115.695 41.364C115.695 41.948 115.523 42.408 115.179 42.744C114.843 43.08 114.407 43.248 113.871 43.248C113.335 43.248 112.895 43.08 112.551 42.744C112.215 42.408 112.047 41.948 112.047 41.364ZM119.367 39.648L114.579 48H113.235L118.023 39.648H119.367ZM113.871 40.32C113.367 40.32 113.115 40.668 113.115 41.364C113.115 42.068 113.367 42.42 113.871 42.42C114.111 42.42 114.295 42.336 114.423 42.168C114.559 41.992 114.627 41.724 114.627 41.364C114.627 40.668 114.375 40.32 113.871 40.32ZM116.931 46.272C116.931 45.688 117.099 45.232 117.435 44.904C117.779 44.568 118.219 44.4 118.755 44.4C119.283 44.4 119.715 44.568 120.051 44.904C120.395 45.232 120.567 45.688 120.567 46.272C120.567 46.856 120.395 47.316 120.051 47.652C119.715 47.988 119.283 48.156 118.755 48.156C118.219 48.156 117.779 47.988 117.435 47.652C117.099 47.316 116.931 46.856 116.931 46.272ZM118.743 45.228C118.239 45.228 117.987 45.576 117.987 46.272C117.987 46.968 118.239 47.316 118.743 47.316C119.247 47.316 119.499 46.968 119.499 46.272C119.499 45.576 119.247 45.228 118.743 45.228Z" fill="#FE9602"/>
<g filter="url(#filter2_d_0_2160)">
<circle cx="217" cy="118" r="28" fill="white"/>
</g>
<path d="M206.406 121.14C207.174 120.476 207.778 119.932 208.218 119.508C208.666 119.076 209.038 118.628 209.334 118.164C209.63 117.7 209.778 117.236 209.778 116.772C209.778 116.292 209.662 115.916 209.43 115.644C209.206 115.372 208.85 115.236 208.362 115.236C207.89 115.236 207.522 115.388 207.258 115.692C207.002 115.988 206.866 116.388 206.85 116.892H205.53C205.554 115.98 205.826 115.284 206.346 114.804C206.874 114.316 207.542 114.072 208.35 114.072C209.222 114.072 209.902 114.312 210.39 114.792C210.886 115.272 211.134 115.912 211.134 116.712C211.134 117.288 210.986 117.844 210.69 118.38C210.402 118.908 210.054 119.384 209.646 119.808C209.246 120.224 208.734 120.708 208.11 121.26L207.57 121.74H211.374V122.88H205.542V121.884L206.406 121.14ZM212.575 118.512C212.575 117.128 212.807 116.048 213.271 115.272C213.743 114.488 214.551 114.096 215.695 114.096C216.839 114.096 217.643 114.488 218.107 115.272C218.579 116.048 218.815 117.128 218.815 118.512C218.815 119.912 218.579 121.008 218.107 121.8C217.643 122.584 216.839 122.976 215.695 122.976C214.551 122.976 213.743 122.584 213.271 121.8C212.807 121.008 212.575 119.912 212.575 118.512ZM217.471 118.512C217.471 117.864 217.427 117.316 217.339 116.868C217.259 116.42 217.091 116.056 216.835 115.776C216.579 115.488 216.199 115.344 215.695 115.344C215.191 115.344 214.811 115.488 214.555 115.776C214.299 116.056 214.127 116.42 214.039 116.868C213.959 117.316 213.919 117.864 213.919 118.512C213.919 119.184 213.959 119.748 214.039 120.204C214.119 120.66 214.287 121.028 214.543 121.308C214.807 121.588 215.191 121.728 215.695 121.728C216.199 121.728 216.579 121.588 216.835 121.308C217.099 121.028 217.271 120.66 217.351 120.204C217.431 119.748 217.471 119.184 217.471 118.512ZM220.047 116.364C220.047 115.78 220.215 115.324 220.551 114.996C220.895 114.66 221.335 114.492 221.871 114.492C222.407 114.492 222.843 114.66 223.179 114.996C223.523 115.324 223.695 115.78 223.695 116.364C223.695 116.948 223.523 117.408 223.179 117.744C222.843 118.08 222.407 118.248 221.871 118.248C221.335 118.248 220.895 118.08 220.551 117.744C220.215 117.408 220.047 116.948 220.047 116.364ZM227.367 114.648L222.579 123H221.235L226.023 114.648H227.367ZM221.871 115.32C221.367 115.32 221.115 115.668 221.115 116.364C221.115 117.068 221.367 117.42 221.871 117.42C222.111 117.42 222.295 117.336 222.423 117.168C222.559 116.992 222.627 116.724 222.627 116.364C222.627 115.668 222.375 115.32 221.871 115.32ZM224.931 121.272C224.931 120.688 225.099 120.232 225.435 119.904C225.779 119.568 226.219 119.4 226.755 119.4C227.283 119.4 227.715 119.568 228.051 119.904C228.395 120.232 228.567 120.688 228.567 121.272C228.567 121.856 228.395 122.316 228.051 122.652C227.715 122.988 227.283 123.156 226.755 123.156C226.219 123.156 225.779 122.988 225.435 122.652C225.099 122.316 224.931 121.856 224.931 121.272ZM226.743 120.228C226.239 120.228 225.987 120.576 225.987 121.272C225.987 121.968 226.239 122.316 226.743 122.316C227.247 122.316 227.499 121.968 227.499 121.272C227.499 120.576 227.247 120.228 226.743 120.228Z" fill="#FF2D59"/>
<defs>
<filter id="filter0_d_0_2160" x="0" y="156" width="116" height="116" filterUnits="userSpaceOnUse" color-interpolation-filters="sRGB">
<feFlood flood-opacity="0" result="BackgroundImageFix"/>
<feColorMatrix in="SourceAlpha" type="matrix" values="0 0 0 0 0 0 0 0 0 0 0 0 0 0 0 0 0 0 127 0" result="hardAlpha"/>
<feOffset dy="15"/>
<feGaussianBlur stdDeviation="15"/>
<feColorMatrix type="matrix" values="0 0 0 0 0.541176 0 0 0 0 0.584314 0 0 0 0 0.619608 0 0 0 0.2 0"/>
<feBlend mode="normal" in2="BackgroundImageFix" result="effect1_dropShadow_0_2160"/>
<feBlend mode="normal" in="SourceGraphic" in2="effect1_dropShadow_0_2160" result="shape"/>
</filter>
<filter id="filter1_d_0_2160" x="51" y="0" width="116" height="116" filterUnits="userSpaceOnUse" color-interpolation-filters="sRGB">
<feFlood flood-opacity="0" result="BackgroundImageFix"/>
<feColorMatrix in="SourceAlpha" type="matrix" values="0 0 0 0 0 0 0 0 0 0 0 0 0 0 0 0 0 0 127 0" result="hardAlpha"/>
<feOffset dy="15"/>
<feGaussianBlur stdDeviation="15"/>
<feColorMatrix type="matrix" values="0 0 0 0 0.541176 0 0 0 0 0.584314 0 0 0 0 0.619608 0 0 0 0.2 0"/>
<feBlend mode="normal" in2="BackgroundImageFix" result="effect1_dropShadow_0_2160"/>
<feBlend mode="normal" in="SourceGraphic" in2="effect1_dropShadow_0_2160" result="shape"/>
</filter>
<filter id="filter2_d_0_2160" x="159" y="75" width="116" height="116" filterUnits="userSpaceOnUse" color-interpolation-filters="sRGB">
<feFlood flood-opacity="0" result="BackgroundImageFix"/>
<feColorMatrix in="SourceAlpha" type="matrix" values="0 0 0 0 0 0 0 0 0 0 0 0 0 0 0 0 0 0 127 0" result="hardAlpha"/>
<feOffset dy="15"/>
<feGaussianBlur stdDeviation="15"/>
<feColorMatrix type="matrix" values="0 0 0 0 0.541176 0 0 0 0 0.584314 0 0 0 0 0.619608 0 0 0 0.2 0"/>
<feBlend mode="normal" in2="BackgroundImageFix" result="effect1_dropShadow_0_2160"/>
<feBlend mode="normal" in="SourceGraphic" in2="effect1_dropShadow_0_2160" result="shape"/>
</filter>
</defs>
</svg>
