<svg width="407" height="391" viewBox="0 0 407 391" fill="none" xmlns="http://www.w3.org/2000/svg">
<path d="M136.218 138.781C128.562 128.894 118.771 120.83 107.917 115.494C98.6717 110.926 88.3036 108.198 77.718 107.484L78.8332 103.545C89.7865 104.426 100.215 107.233 109.685 111.886C121.083 117.5 131.346 125.947 139.385 136.316C147.423 146.686 153.012 158.748 155.585 171.202C156.314 174.708 156.791 178.226 157.04 181.741C171.535 192.756 182.662 207.237 192.53 221.403C194.937 224.845 197.336 228.388 199.648 231.803C208.13 244.269 216.89 257.147 227.348 268.201C239.148 280.673 253.699 291.123 269.432 298.421C285.605 305.926 302.483 310.061 319.605 310.696C326.631 310.942 333.679 310.593 340.582 309.663L339.401 313.832C332.751 314.605 326.13 314.91 319.458 314.66C309.027 314.28 298.664 312.632 288.523 309.761C281.494 307.771 274.551 305.183 267.746 302.032C251.573 294.526 236.591 283.768 224.44 270.927C213.775 259.647 204.908 246.636 196.357 234.046C194.046 230.632 191.641 227.108 189.248 223.691C180.159 210.658 170.035 197.395 157.217 186.979C157.239 200.309 153.784 213.027 147.123 223.364C142.191 231.037 135.323 237.414 127.272 241.817C118.925 246.385 109.865 248.489 101.054 247.883C92.0343 247.28 83.1555 243.542 76.0124 237.41C68.6906 231.104 63.9636 222.813 62.6658 214.062C61.2315 204.4 63.9308 194.207 70.269 185.376C76.2629 177.029 85.1593 170.52 94.7026 167.515C103.947 164.613 113.985 164.259 124.48 166.462C133.98 168.447 143.545 172.545 152.144 178.3C152.333 178.437 152.528 178.554 152.718 178.691C152.471 176.484 152.104 174.263 151.65 172.059C149.209 160.162 143.874 148.669 136.218 138.781ZM149.944 181.6C141.763 176.129 132.676 172.249 123.667 170.362C113.835 168.304 104.491 168.627 95.9068 171.322C87.1855 174.062 79.0227 180.031 73.5345 187.691C67.8085 195.678 65.3591 204.842 66.632 213.462C68.9772 229.359 84.2367 242.727 101.352 243.9C109.39 244.453 117.699 242.51 125.38 238.314C132.846 234.222 139.204 228.324 143.789 221.217C150.551 210.742 153.784 197.566 153.163 183.86C152.103 183.062 151.026 182.321 149.944 181.6Z" fill="#ECECEC"/>
<path d="M39.6165 102.907L87.4837 83.8698L82.5955 98.3691L52.5468 102.536L80.7909 103.722L80.7862 103.736L80.7928 103.72L90.4098 111.495L78.0506 111.85L74.5781 122.151L39.6165 102.907Z" fill="#ECECEC"/>
</svg>
