<svg width="407" height="391" viewBox="0 0 407 391" fill="none" xmlns="http://www.w3.org/2000/svg">
<path d="M270.707 138.781C278.364 128.894 288.155 120.83 299.008 115.494C308.254 110.926 318.622 108.198 329.208 107.484L328.092 103.545C317.139 104.426 306.71 107.233 297.24 111.886C285.843 117.5 275.579 125.947 267.541 136.316C259.502 146.686 253.914 158.748 251.341 171.202C250.611 174.708 250.134 178.226 249.885 181.741C235.39 192.756 224.263 207.237 214.395 221.403C211.988 224.845 209.589 228.388 207.278 231.803C198.796 244.269 190.036 257.147 179.577 268.201C167.778 280.673 153.227 291.123 137.493 298.421C121.32 305.926 104.442 310.061 87.3202 310.696C80.2948 310.942 73.246 310.593 66.344 309.663L67.5244 313.832C74.1746 314.605 80.7957 314.91 87.4674 314.66C97.8986 314.28 108.261 312.632 118.402 309.761C125.432 307.771 132.375 305.183 139.179 302.032C155.352 294.526 170.334 283.768 182.486 270.927C193.151 259.647 202.018 246.636 210.569 234.046C212.88 230.632 215.284 227.108 217.678 223.691C226.767 210.658 236.891 197.395 249.708 186.979C249.686 200.309 253.142 213.027 259.803 223.364C264.735 231.037 271.602 237.414 279.653 241.817C288 246.385 297.06 248.489 305.872 247.883C314.891 247.28 323.77 243.542 330.913 237.41C338.235 231.104 342.962 222.813 344.26 214.062C345.694 204.4 342.995 194.207 336.656 185.376C330.663 177.029 321.766 170.52 312.223 167.515C302.978 164.613 292.941 164.259 282.445 166.462C272.945 168.447 263.38 172.545 254.782 178.3C254.592 178.437 254.397 178.554 254.208 178.691C254.454 176.484 254.821 174.263 255.276 172.059C257.716 160.162 263.051 148.669 270.707 138.781ZM256.982 181.6C265.162 176.129 274.25 172.249 283.259 170.362C293.091 168.304 302.434 168.627 311.019 171.322C319.74 174.062 327.903 180.031 333.391 187.691C339.117 195.678 341.566 204.842 340.294 213.462C337.948 229.359 322.689 242.727 305.574 243.9C297.536 244.453 289.227 242.51 281.545 238.314C274.08 234.222 267.721 228.324 263.137 221.217C256.374 210.742 253.142 197.566 253.763 183.86C254.823 183.062 255.9 182.321 256.982 181.6Z" fill="#ECECEC"/>
<path d="M367.309 102.907L319.442 83.8698L324.33 98.3691L354.379 102.536L326.135 103.722L326.139 103.736L326.133 103.72L316.516 111.495L328.875 111.85L332.348 122.151L367.309 102.907Z" fill="#ECECEC"/>
</svg>
